<svg width="56" height="56" viewBox="0 0 56 56" fill="none" xmlns="http://www.w3.org/2000/svg">
<path d="M53 20.5V35.5C53 41.75 51.75 46.125 48.95 48.95L33 33L52.325 13.675C52.775 15.65 53 17.9 53 20.5Z" stroke="white" stroke-width="5" stroke-linejoin="round"/>
<path d="M3 20.5C3 8 8 3 20.5 3H35.5C45.4 3 50.6 6.15 52.325 13.675L13.675 52.325C6.14997 50.6 3 45.4 3 35.5V30.35" stroke="white" stroke-width="5" stroke-linejoin="round"/>
<path d="M48.9487 48.95C46.1238 51.75 41.7488 53 35.4988 53H20.4989C17.8989 53 15.6488 52.775 13.6738 52.325L32.9988 33L48.9487 48.95Z" stroke="white" stroke-width="5" stroke-linejoin="round"/>
<path d="M13.5982 17.9493C15.2982 10.6243 26.2982 10.6243 27.9982 17.9493C28.9732 22.2493 26.2732 25.8994 23.8982 28.1494C22.1732 29.7994 19.4482 29.7994 17.6982 28.1494C15.3232 25.8994 12.5982 22.2493 13.5982 17.9493Z" stroke="white" stroke-width="5"/>
</svg>
