<svg width="56" height="56" viewBox="0 0 56 56" fill="none" xmlns="http://www.w3.org/2000/svg">
<path d="M28 3C41.8 3 53 14.2 53 28C53 41.8 41.8 53 28 53C23.4 53 19.075 51.75 15.35 49.575L3 53L6.35007 40.5C4.22507 36.825 3 32.55 3 28C3 18.75 8.025 10.675 15.5 6.35" stroke="white" stroke-width="5" stroke-miterlimit="10" stroke-linejoin="round"/>
<path d="M40.5 35.925C40.5 36.375 40.4 36.85 40.175 37.3C39.95 37.75 39.675 38.175 39.325 38.575C38.7 39.25 38.025 39.75 37.275 40.05C36.525 40.375 35.7 40.525 34.825 40.525C33.55 40.525 32.175 40.225 30.75 39.6C29.3 38.975 27.875 38.15 26.45 37.125C25 36.075 23.65 34.9 22.35 33.625C21.05 32.325 19.9001 30.95 18.8501 29.525C17.8251 28.1 17 26.675 16.4 25.25C15.8 23.825 15.5 22.45 15.5 21.15C15.5 20.3 15.65 19.475 15.95 18.725C16.25 17.95 16.725 17.25 17.4 16.625C18.2 15.825 19.075 15.45 20 15.45C20.35 15.45 20.7001 15.525 21.0251 15.675C21.3501 15.825 21.65 16.05 21.875 16.375L24.775 20.4749C25 20.7999 25.175 21.0749 25.275 21.3499C25.4 21.6249 25.45 21.8749 25.45 22.1249C25.45 22.4249 25.35 22.725 25.175 23.025C25 23.325 24.775 23.625 24.475 23.925L23.525 24.925C23.375 25.075 23.325 25.225 23.325 25.425C23.325 25.525 23.35 25.625 23.375 25.725C23.425 25.825 23.45 25.9 23.475 25.975C23.7 26.4 24.1 26.925 24.65 27.575C25.225 28.225 25.825 28.9 26.475 29.55C27.15 30.225 27.8 30.825 28.475 31.4C29.125 31.95 29.675 32.325 30.1 32.55C30.175 32.575 30.25 32.625 30.325 32.65C30.425 32.7 30.525 32.7 30.65 32.7C30.875 32.7 31.025 32.625 31.175 32.475L32.125 31.525C32.45 31.2 32.75 30.975 33.025 30.825C33.325 30.65 33.6 30.55 33.925 30.55C34.175 30.55 34.425 30.6 34.7 30.725C34.975 30.85 35.275 31 35.575 31.225L39.725 34.175C40.05 34.4 40.275 34.675 40.425 34.975C40.425 35.275 40.5 35.575 40.5 35.925Z" stroke="white" stroke-width="5" stroke-miterlimit="10"/>
</svg>
