<svg width="125" height="125" viewBox="0 0 125 125" fill="none" xmlns="http://www.w3.org/2000/svg">
<path d="M48.125 72.5624C48.125 78.1399 52.4375 82.6249 57.7275 82.6249H68.5375C73.1375 82.6249 76.875 78.7149 76.875 73.8274C76.875 68.5949 74.575 66.6974 71.1825 65.4899L53.875 59.4524C50.4825 58.2449 48.1826 56.4049 48.1826 51.1149C48.1826 46.2849 51.92 42.3174 56.52 42.3174H67.33C72.62 42.3174 76.9325 46.8024 76.9325 52.3799" stroke="#292D32" stroke-width="8.622" stroke-linecap="round" stroke-linejoin="round"/>
<path d="M62.5 36.625V88.375" stroke="#292D32" stroke-width="8.622" stroke-linecap="round" stroke-linejoin="round"/>
<path d="M91.25 10.75V33.75H114.25" stroke="#292D32" stroke-width="8.622" stroke-linecap="round" stroke-linejoin="round"/>
<path d="M120 5L91.25 33.75" stroke="#292D32" stroke-width="8.622" stroke-linecap="round" stroke-linejoin="round"/>
<path d="M62.5 5C30.76 5 5 30.76 5 62.5C5 85.155 18.1101 104.763 37.2001 114.135" stroke="#292D32" stroke-width="8.622" stroke-linecap="round" stroke-linejoin="round"/>
<path d="M120 62.5C120 94.24 94.24 120 62.5 120" stroke="#292D32" stroke-width="8.622" stroke-linecap="round" stroke-linejoin="round"/>
</svg>
