<svg width="125" height="125" viewBox="0 0 125 125" fill="none" xmlns="http://www.w3.org/2000/svg">
<path d="M41.6974 62.5289L55.5708 76.4752L83.3745 48.5824" stroke="#292D32" stroke-width="8.63169" stroke-linecap="round" stroke-linejoin="round"/>
<path d="M17.8657 29.1036C17.8657 22.9948 22.8738 17.9811 28.9757 17.9811H38.9344C41.2369 17.9811 44.4606 16.7708 46.1875 15.3301L55.283 7.55011C59.3125 4.14996 65.8173 4.14996 69.7317 7.55011L78.8269 15.3301C80.5538 16.7708 83.835 17.9811 86.1376 17.9811H95.9236C102.025 17.9811 107.034 22.9948 107.034 29.1036V38.9006C107.034 41.2058 108.242 44.4331 109.682 46.162L117.453 55.2675C120.849 59.3016 120.849 65.8138 117.453 69.7326L109.682 78.8381C108.242 80.5669 107.034 83.7942 107.034 86.0994V95.8964C107.034 102.005 102.025 107.019 95.9236 107.019H86.1376C83.835 107.019 80.6114 108.229 78.8845 109.67L69.7892 117.45C65.7597 120.85 59.2549 120.85 55.3405 117.45L46.2451 109.67C44.5181 108.229 41.2369 107.019 38.9919 107.019H28.9757C22.8738 107.019 17.8657 102.005 17.8657 95.8964V86.0418C17.8657 83.7942 16.7144 80.5093 15.2753 78.8381L7.50406 69.6749C4.16531 65.6985 4.16531 59.244 7.50406 55.2675L10.7277 51.464" stroke="#292D32" stroke-width="8.63169" stroke-linecap="round" stroke-linejoin="round"/>
</svg>
