<svg width="355" height="45" viewBox="0 0 355 45" fill="none" xmlns="http://www.w3.org/2000/svg">
<path d="M7.15625 25.8125C6.28125 25.8125 5.44792 25.6458 4.65625 25.3125C3.88542 24.9583 3.20833 24.5 2.625 23.9375C2.04167 23.3542 1.58333 22.6771 1.25 21.9062C0.916667 21.1146 0.75 20.2812 0.75 19.4062V6.59375C0.75 5.71875 0.916667 4.89583 1.25 4.125C1.58333 3.33333 2.04167 2.65625 2.625 2.09375C3.20833 1.51042 3.88542 1.05208 4.65625 0.71875C5.44792 0.364583 6.28125 0.1875 7.15625 0.1875H28.9062C29.7812 0.1875 30.6042 0.364583 31.375 0.71875C32.1667 1.05208 32.8542 1.51042 33.4375 2.09375C34.0208 2.65625 34.4792 3.33333 34.8125 4.125C35.1458 4.89583 35.3125 5.71875 35.3125 6.59375V12.375H28.9062V6.59375H7.15625V19.4062H28.9062C29.7812 19.4062 30.6042 19.5729 31.375 19.9062C32.1667 20.2396 32.8542 20.6979 33.4375 21.2812C34.0208 21.8646 34.4792 22.5521 34.8125 23.3438C35.1458 24.1146 35.3125 24.9375 35.3125 25.8125V38.5938C35.3125 39.4688 35.1458 40.3021 34.8125 41.0938C34.4792 41.8646 34.0208 42.5417 33.4375 43.125C32.8542 43.7083 32.1667 44.1667 31.375 44.5C30.6042 44.8333 29.7812 45 28.9062 45H6.53125C5.65625 45 4.82292 44.8333 4.03125 44.5C3.26042 44.1667 2.58333 43.7083 2 43.125C1.41667 42.5417 0.958333 41.8646 0.625 41.0938C0.291667 40.3021 0.125 39.4688 0.125 38.5938V32.8438H6.53125V38.5938H28.9062V25.8125H7.15625ZM46.875 0.1875H53.2812V38.5938H78.875V0.1875H85.2812V38.5938C85.2812 39.4688 85.1146 40.3021 84.7812 41.0938C84.4479 41.8646 83.9896 42.5417 83.4062 43.125C82.8229 43.7083 82.1354 44.1667 81.3438 44.5C80.5729 44.8333 79.75 45 78.875 45H53.2812C52.4062 45 51.5729 44.8333 50.7812 44.5C50.0104 44.1667 49.3333 43.7083 48.75 43.125C48.1667 42.5417 47.7083 41.8646 47.375 41.0938C47.0417 40.3021 46.875 39.4688 46.875 38.5938V0.1875ZM126 21.625C126.938 21.9167 127.792 22.3333 128.562 22.875C129.333 23.4167 129.99 24.1146 130.531 24.9688C131.073 25.8021 131.49 26.7917 131.781 27.9375C132.073 29.0833 132.219 30.3958 132.219 31.875V34.125C132.219 41.375 128.594 45 121.344 45H96.8125V0.1875H120.062C127.312 0.1875 130.938 3.82292 130.938 11.0938V11.9062C130.938 14.4271 130.531 16.4896 129.719 18.0938C128.927 19.6771 127.688 20.8542 126 21.625ZM103.094 25.4688V38.7188H121.156C122.844 38.7188 124.062 38.3229 124.812 37.5312C125.562 36.7396 125.938 35.5 125.938 33.8125V30.3438C125.938 28.6354 125.562 27.3958 124.812 26.625C124.062 25.8542 122.844 25.4688 121.156 25.4688H103.094ZM103.094 6.46875V19.2188H120.312C121.854 19.1562 122.958 18.7396 123.625 17.9688C124.312 17.1771 124.656 15.9688 124.656 14.3438V11.4062C124.656 9.69792 124.281 8.44792 123.531 7.65625C122.781 6.86458 121.562 6.46875 119.875 6.46875H103.094ZM161 6.59375C161 5.71875 161.167 4.89583 161.5 4.125C161.833 3.33333 162.292 2.65625 162.875 2.09375C163.458 1.51042 164.135 1.05208 164.906 0.71875C165.698 0.364583 166.531 0.1875 167.406 0.1875H191.719C192.594 0.1875 193.417 0.364583 194.188 0.71875C194.979 1.05208 195.667 1.51042 196.25 2.09375C196.833 2.65625 197.292 3.33333 197.625 4.125C197.958 4.89583 198.125 5.71875 198.125 6.59375V12.375H191.719V6.59375H167.406V38.5938H191.719V27.7188H179.562V21.3125H198.125V38.5938C198.125 39.4688 197.958 40.3021 197.625 41.0938C197.292 41.8646 196.833 42.5417 196.25 43.125C195.667 43.7083 194.979 44.1667 194.188 44.5C193.417 44.8333 192.594 45 191.719 45H167.406C166.531 45 165.698 44.8333 164.906 44.5C164.135 44.1667 163.458 43.7083 162.875 43.125C162.292 42.5417 161.833 41.8646 161.5 41.0938C161.167 40.3021 161 39.4688 161 38.5938V6.59375ZM209.625 0.1875H242.281V6.59375H216.031V19.4062H238.438V25.8125H216.031V38.5938H242.281V45H209.625V0.1875ZM258.281 45H251.875V0.1875H258.281L285.219 34.9375V0.1875H291.625V45H285.219L258.281 10.25V45ZM319.75 31.4375H326.031V33.8125C326.031 35.5 326.406 36.7396 327.156 37.5312C327.906 38.3229 329.135 38.7188 330.844 38.7188H343.75C345.458 38.7188 346.688 38.3229 347.438 37.5312C348.188 36.7396 348.562 35.5 348.562 33.8125V30.3438C348.562 28.6354 348.188 27.3958 347.438 26.625C346.688 25.8542 345.458 25.4688 343.75 25.4688H330.5V19.2188H343.562C345.125 19.1562 346.24 18.7396 346.906 17.9688C347.594 17.1771 347.938 15.9688 347.938 14.3438V11.4062C347.938 9.69792 347.552 8.44792 346.781 7.65625C346.031 6.86458 344.812 6.46875 343.125 6.46875H331.469C329.781 6.46875 328.562 6.86458 327.812 7.65625C327.062 8.44792 326.688 9.69792 326.688 11.4062V13.7812H320.406V11.0938C320.406 3.82292 324.031 0.1875 331.281 0.1875H343.312C347 0.1875 349.729 1.08333 351.5 2.875C353.292 4.66667 354.188 7.40625 354.188 11.0938V11.9062C354.188 14.4271 353.74 16.5104 352.844 18.1562C351.969 19.7812 350.688 20.9896 349 21.7812C350.896 22.3438 352.344 23.4688 353.344 25.1562C354.344 26.8438 354.844 29.0833 354.844 31.875V34.125C354.844 41.375 351.219 45 343.969 45H330.656C323.385 45 319.75 41.375 319.75 34.125V31.4375Z" fill="white"/>
</svg>
